# xmcd
#
# Track frame offsets:
#	150
#	42283
#	84661
#	119505
#	158175
#	202916
#	233128
#	263684
#
# Disc length: 3998 seconds
#
# Revision: 1
# Processed by: cddbd v1.5PL3 Copyright (c) Steve Scherf et al.
# Submitted via: audiograbber 1.82.01
#
DISCID=620f9c08
DTITLE=Jeremy J. Siegel - Stocks for the Long Run - CD4
DYEAR=2002
DGENRE=Speech
TTITLE0=Preface
TTITLE1=Chapter 1 - Stocks as Investments
TTITLE2=Postcrash View of Stock Returns
TTITLE3=The Cult of Equities
TTITLE4=Chapter 2 - Stock Market Value
TTITLE5=Does Value Depend on Stocks or Dividends
TTITLE6=Aggregate Earnings Estimates
TTITLE7=Market Value Relative to GDP
EXTD=
EXTT0=
EXTT1=
EXTT2=
EXTT3=
EXTT4=
EXTT5=
EXTT6=
EXTT7=
PLAYORDER=
